<svg xmlns="http://www.w3.org/2000/svg" width="199.333" height="62" viewBox="0 0 199.333 62"><g fill="#1A181C"><path d="M76.916 46.07v-4.637c0-.381.096-.455.379-.496.343-.056.95-.073 1.351-.073-.038.721-.058 1.843-.058 3.44v6.141c0 1.332.039 1.956.058 2.338-.323.075-1.159.152-1.445.152-.188 0-.285-.055-.285-.303v-5.458c-.379.039-1.007.061-2.68.061h-3.498v5.129c0 .378-.095.438-.477.493-.474.078-.818.078-1.254.078.039-.76.058-1.883.058-3.479v-6.006c0-1.295-.019-2.074-.058-2.435.341-.077 1.085-.15 1.389-.15.264 0 .342.114.342.987v4.219h6.178zM82.388 49.114c-.665 1.54-1.254 2.926-1.576 3.593-.079.15-.191.228-.418.228-.307 0-.856-.095-1.141-.228v-.094c1.081-2.34 4.256-9.546 4.887-11.028l-.231-.532c.418-.095 1.065-.188 1.294-.188.228 0 .363.129.436.321.876 2.016 2.529 6.082 3.291 7.813.778 1.788 1.254 2.966 1.598 3.651v.075c-.401.132-1.143.21-1.445.21-.249 0-.382-.114-.57-.57-.42-.988-.723-1.75-1.37-3.25h-4.755zm4.373-1.161c-1.026-2.583-1.693-4.182-1.959-4.847-.645 1.539-1.253 3.061-1.994 4.847h3.953zM92.311 47.286c0 3.977 1.882 4.583 3.327 4.583 1.692 0 3.345-.606 3.345-4.81v-5.665c0-.342.152-.417.362-.458.57-.056.759-.073 1.139-.073-.037.739-.056 1.86-.056 3.44v2.679c0 5.477-2.871 6.123-4.998 6.123-2.853 0-4.792-1.387-4.792-5.796v-3.86c0-1.276-.02-2.054-.058-2.435.268-.057 1.104-.15 1.407-.15.285 0 .324.114.324 1.027v5.395zM105.626 42.098h-3.632c-.284 0-.417-.114-.284-.416.153-.401.38-.689.532-.839.246.077.686.095 2.813.095h6.389c-.02.571-.401 1.046-.668 1.161h-3.476v8.365c0 1.313.037 1.938.056 2.32-.42.097-.969.152-1.426.152-.206 0-.304-.055-.304-.342v-10.496zM116.178 41.09v-.076c.247-.057 1.254-.152 1.54-.152.133 0 .305.116.476.323.646.818 2.528 3.5 4.447 6.125.968 1.348 1.807 2.507 2.321 3.459-.114-1.923-.096-3.045-.096-3.995v-5.284c0-.435.133-.512.363-.553.568-.056.686-.075 1.046-.075-.039.819-.058 1.921-.058 3.498v8.422c-.133.097-.819.285-1.16.285-.133 0-.229-.057-.324-.152-1.256-1.69-3.042-4.164-4.714-6.481-.682-1.048-1.37-2.075-2.109-3.311.096 2.263.096 3.292.096 4.26v4.905c0 .455-.116.514-.382.568-.303.059-.686.078-1.027.078.039-.76.058-1.863.058-3.461v-7.735l-.477-.648zM134.191 40.636c3.67 0 6.025 2.697 6.025 6.119 0 3.311-1.994 6.35-6.044 6.35-4.41 0-6.083-3.421-6.083-6.084 0-3.628 2.28-6.384 6.083-6.384h.019zm-.17 1.083c-2.341 0-4.107 1.842-4.107 5.13 0 3.348 2.167 5.173 4.373 5.173 2.415 0 4.122-1.749 4.122-5.173 0-2.926-1.746-5.13-4.37-5.13h-.018zM143.669 52.402c0 .342-.096.438-.341.478-.533.055-1.143.055-1.37.055.039-.76.056-1.883.056-3.461v-6.384c0-.935 0-1.39-.037-1.978.532-.115 1.994-.287 2.852-.287 2.525 0 4.18.875 4.18 3.384 0 1.884-1.597 2.812-2.375 3.138.474.342 1.063 1.157 1.823 2.394.954 1.576 1.711 2.585 2.131 2.983v.078c-.152.113-.607.171-1.102.171-.57 0-1.007-.267-1.52-.972-.649-.951-.932-1.481-1.636-2.661-.744-1.216-1.104-1.537-2.15-1.537h-.511v4.599zm0-5.628c.684.039 1.805 0 2.071-.095.703-.244 1.518-.966 1.518-2.357 0-1.803-1.214-2.43-2.468-2.43-.399 0-.838.016-1.121.074v4.808zM161.585 41.071c.208-.114 1.008-.209 1.33-.209.15 0 .249.095.307.494l1.196 7.092c.345 1.997.59 3.403.8 4.314-.287.094-1.027.172-1.334.172-.226 0-.36-.095-.398-.38-.189-1.066-.322-1.94-.551-3.69l-.873-5.719c-.704 1.883-2.127 5.567-3.439 9.05-.097.264-.193.417-.498.512-.228.056-.57.114-.816.114-.569-1.805-2.356-6.75-3.401-9.641-.402 2.739-1.238 7.529-1.543 9.47-.054.208-.13.285-.322.285-.285 0-.855 0-1.141-.172.379-1.9 1.274-6.958 2.11-11.234l-.114-.457c.36-.093.894-.209 1.464-.209.228.267.455.799.971 2.071l2.736 7.225c1.254-3.118 2.716-6.786 3.536-8.747l-.02-.341zM168.635 49.116c-.666 1.537-1.254 2.924-1.578 3.59-.078.15-.191.228-.417.228-.306 0-.859-.095-1.142-.228v-.094c1.084-2.338 4.257-9.546 4.886-11.028l-.229-.529c.42-.098 1.065-.193 1.293-.193.227 0 .358.134.435.323.875 2.016 2.532 6.083 3.291 7.813.778 1.788 1.254 2.966 1.597 3.651v.075c-.399.132-1.141.21-1.445.21-.249 0-.38-.114-.571-.57-.417-.988-.721-1.75-1.368-3.248h-4.752zm4.372-1.163c-1.027-2.583-1.689-4.18-1.959-4.847-.644 1.539-1.253 3.061-1.992 4.847h3.951zM177.055 41.09v-.076c.247-.057 1.254-.152 1.538-.152.134 0 .304.116.478.323.645.818 2.53 3.5 4.449 6.125.967 1.348 1.807 2.507 2.319 3.459-.115-1.923-.096-3.045-.096-3.995v-5.284c0-.435.134-.512.36-.553.571-.056.686-.075 1.047-.075-.039.819-.056 1.921-.056 3.498v8.422c-.133.097-.819.285-1.158.285-.137 0-.231-.057-.326-.152-1.255-1.69-3.044-4.164-4.717-6.481-.68-1.048-1.368-2.075-2.11-3.311.097 2.263.097 3.292.097 4.26v4.905c0 .455-.114.514-.38.568-.307.059-.684.078-1.027.078.039-.76.058-1.863.058-3.461v-7.735l-.476-.648zM189.046 43.373c0-1.293 0-1.673-.037-2.224.304-.094 2.148-.324 3.422-.324 5.911 0 6.901 3.516 6.901 5.875 0 4.086-2.95 6.311-6.845 6.311-1.368 0-2.356-.153-3.441-.417v-9.221zm1.675 8.345c.476.134 1.216.189 1.861.189 2.377 0 4.923-1.198 4.923-5.152 0-2.907-1.69-4.808-5.245-4.808-.646 0-1.122.039-1.54.112v9.659z"/></g><path fill="#7BAF2A" d="M49.802 49.285c0-2.161.132-4.685.132-6.047 0-3.624-2.424-5.618-5.415-5.618-2.228 0-4.587 1.129-6.016 2.16 0 .998.464 2.194 1.86 1.794.731-.433 1.894-.962 3.091-.962 1.663 0 2.625 1.129 2.625 2.526v.563l-1.727.334c-2.361.531-6.348 1.462-6.348 4.885 0 2.461 1.96 4.121 4.154 4.121 1.596 0 3.059-.931 3.921-1.861.433 1.162 1.33 1.861 2.691 1.861 1.894 0 2.931-1.031 2.897-2.792v-.132c-.167.033-.504.068-.67.068-.795 0-1.195-.467-1.195-.9zm-3.788-1.096c0 .599-.1.929-.266 1.129-.465.497-.997.866-1.927.866-1.064 0-1.96-.666-1.96-1.831v-.033c0-1.096 1.262-2.16 4.153-2.493v2.362zm-8.951-4.817c0-2.526-.997-5.751-4.751-5.751-1.827 0-3.788 1.23-5.085 2.425-.697-1.394-1.859-2.425-4.021-2.425-1.728 0-3.489 1.097-4.818 2.226-.233-1.03-.598-2.226-1.994-2.226-.964 0-2.094.832-2.459 1.663v.231c.498.298.631.799.631 1.694v5.583c0 2.263-.034 4.289-.1 6.051 1.197 0 2.227-.033 3.355-.166.666-.134.766-.334.766-.931v-9.838c.731-.699 1.694-1.263 2.792-1.263 1.562 0 2.426 1.132 2.426 3.024v3.123c0 2.263-.033 4.289-.1 6.051 1.196 0 2.194 0 3.356-.166.697-.102.765-.268.765-.866v-9.904c.698-.63 1.561-1.263 2.725-1.263 1.629 0 2.491 1.165 2.491 3.024v8.543c0 .43.2.63.632.63 1.396 0 2.726-.2 3.489-.268-.067-1.129-.101-2.956-.101-4.686v-4.515zm-25.267 5.913c0-2.161.134-4.685.134-6.047 0-3.624-2.426-5.618-5.417-5.618-2.228 0-4.587 1.129-6.017 2.16 0 .998.466 2.194 1.863 1.794.73-.433 1.894-.962 3.089-.962 1.663 0 2.625 1.129 2.625 2.526v.563l-1.728.334c-2.358.532-6.345 1.463-6.345 4.885 0 2.461 1.96 4.121 4.154 4.121 1.594 0 3.055-.931 3.92-1.861.432 1.162 1.329 1.861 2.692 1.861 1.894 0 2.824-1.031 2.792-2.792v-.132c-.166.033-.399.068-.564.068-.797 0-1.198-.467-1.198-.9zm-3.788-1.096c0 .599-.1.929-.266 1.129-.466.497-.997.866-1.928.866-1.064 0-1.961-.666-1.961-1.831v-.033c0-1.096 1.263-2.16 4.154-2.493v2.362zm39.015-26.659c.236-.017.381-.163.381-.38.018-1.107-.545-1.961-1.688-1.961h-.018c-.908 0-1.797.817-1.942 2.341 1.307.037 2.94.019 3.267 0zm-15.575-2.341h-.018c-.908 0-1.797.817-1.942 2.341 1.307.037 2.941.019 3.268 0 .236-.017.381-.163.381-.38.018-1.107-.546-1.961-1.689-1.961zm19.969 5.138v.018c0 .671.545 1.089 1.198 1.089.763 0 1.289-.472 1.561-.853.073-.127.127-.29.127-.599v-1.416c-1.489.236-2.886.744-2.886 1.761zm29.775 2.088c.839-1.55 1.314-3.229.023-3.229-2.429 0-.384-2.847-2.601-3.217-1.646-.276-.358-1.059-1.119-1.313.667.055 1.739-.719 1.805-1.167.046-.303-.483-.629-1.079-.984-.059-.885-.522-1.66-1.213-2.144.131-.04.248-.086.344-.141.886-.516 1.025-1.508-1.018-1.909-1.522-.295-.45-1.1.127-1.878.554-.745-1.328-1.831-3.204-1.104-.459.177-.974.318-1.508.433-.199-1.125-1.063-2.021-2.18-2.281.46-.706-.178-1.662-1.058-2.157-.948-.531-3.454.149-3.777.91-.515-.785-1.408-2.703-2.428-2.703-.143 0-.284.013-.421.034.143-.23.213-.468.1-.714-.222-.474-1.654-.311-3.008-.16-.031-1.096-.687-.641-1.63-1.094-.168-.995-.832-2.097-2.347-1.353-1.461.714-3.154.424-4.017-.007-1.015-.51-2.042.537-2.824 1.796-.36-1.172-1.462-2.025-2.766-2.025-1.371 0-2.518.944-2.814 2.21-.506-.431-1.164-.692-1.884-.692-.341 0-.667.061-.97.168.242-.802.138-1.461-1.703-1.422-1.888.04-2.334.672-2.466 1.434-.313-.114-.651-.179-1.005-.179-1.597 0-2.891 1.277-2.891 2.854l.009.163c-1.214-.005-1.071-2.196-3.075-1.084-2.005 1.111-.466 2.212-.293 2.812-.886-.387-2.389.296-2.047 1.325-.135-.058-2.758-2.054-3.981-.831-.695.695-1.258 1.461-.678 2.125-1.08.416-1.848 1.448-1.848 2.661 0 .235.033.459.086.677-.398-.205-.85-.322-1.33-.322-1.596 0-2.891 1.278-2.891 2.856 0 .174.019.346.049.514-.539-.465-.794-.898-1.672-.666-2.282.606 1.757 2.854.669 3.821-1.271 1.136-1.68.961-2.635 2.89-.258.521.073 1.089.498 1.634-.465.507-.75 1.175-.75 1.913 0 .191.02.376.057.556-.633-.038-1.262-.059-1.583.736-.435 1.081.149 1.592 2.471 1.592-1.739 1.168-.933 2.354-.918 2.475-1.862 1.385.86 4.324 4.524 3.343 2.007-.537.747 2.021 2.655 2.032 1.85.009 1.585-2.871 2.926-2.057.351.213.669.164.974-.008.519.771 1.404 1.28 2.41 1.28.405 0 .791-.083 1.141-.232.05.219.136.436.311.65.795.984 2.396-1.134 4.292-.967 1.607.141 1.516 1.27 3.328.704 1.273-.397.962 1.692 2.815 1.508 1.124-.111 4.326-2.653 5.479-2.521 4.404.506 9.539-.383 9.539 9.798l-1.396 10.515c0 2.261-.732 6.433-.8 7.729 1.231 0 2.927-.343 4.056-.476.698-.134.765-.333.765-.896v-8.15c.565.332 2.127.564 3.058.564 4.287 0 8.009-3.29 8.009-8.41 0-4.187-2.492-7.011-5.948-7.011-1.384 0-2.013.63-3.699 1.766.188-3.715 1.426-4.744 4.385-4.489 3.29.283 6.184 3.636 8.024 1.795.644-.645 2.011.309 3.266-.419.597-.347 4.627 3.985 5.315-.78 2.912.265 4.509-2.567 3.047-3.899l-.473-.397c.327-.349.01-1.746.126-2.225.341.072 4.392 1.226 1.265-2.56zm-53.92-7.171c-.055.271-.327.562-.527.581-.271-.109-.49-.146-.726-.146-.4 0-.999.364-1.38 1.252-.127.328-.2.582-.2.981v4.085c0 .272-.053.399-.326.435-.436.055-.872.074-1.252.074.036-.653.055-1.726.055-3.341v-3.032c0-.563-.092-.944-.417-1.143v-.073c.126-.273.653-.673.98-.673.526 0 .853.654.853 1.816.563-1.198 1.362-1.816 2.197-1.816.363 0 .69.164.817.291.071.163.053.491-.074.709zm3.432-2.723c.309-.726 1.144-2.506 1.471-2.506h.018c.327 0 .745.218.963.418.108.109.108.181-.055.363-.727.816-1.434 1.816-1.943 2.505-.199-.055-.344-.181-.472-.291-.091-.09-.109-.199.018-.489zm3.884 5.3c-.055.309-.926.526-1.542.635-.49.055-2.306.091-3.613.037.019 1.852 1.144 2.905 2.742 2.905.817 0 1.706-.272 2.034-.454l.036.036c0 .563-.381 1.072-.69 1.234-.291.163-1.053.4-1.779.4-2.523 0-3.903-1.507-3.903-4.049 0-2.289 1.38-4.322 3.776-4.322 2.069 0 2.958 1.544 2.995 3.015-.001.182-.019.418-.056.563zm18.153-2.36c-.672 0-1.343.327-1.852.672-.49.2-.726-.219-.763-.672.581-.526 1.762-1.217 2.977-1.217 1.835 0 2.705 1.308 2.705 3.032 0 .781-.054 2.524-.036 3.631.018.362.218.599.617.581.091 0 .237 0 .345-.036l.018.036c.017.744-.418 1.126-1.162 1.126-.763 0-1.162-.545-1.27-1.145-.509.563-1.362 1.145-2.325 1.145-1.252 0-2.105-.945-2.105-2.052 0-1.942 2.542-2.469 3.522-2.704.327-.073.672-.146.908-.182v-.545c.002-.854-.489-1.67-1.579-1.67zm-14.794 7.154c-.872 0-1.634-.273-2.016-.599-.163-.146-.236-.346-.199-.527.036-.254.163-.526.381-.618.527.364 1.271.635 1.943.635.907 0 1.38-.472 1.38-1.089 0-.454-.255-.78-.89-1.107-.49-.254-.926-.454-1.362-.689-.762-.417-1.289-1.054-1.289-1.998 0-1.47 1.289-2.378 2.742-2.378h.018c.672 0 1.398.201 1.834.618.037.327-.182.835-.6.817-.381-.199-.89-.345-1.325-.345-.709 0-1.235.4-1.235 1.035 0 .527.363.835.781 1.071.49.254 1.089.527 1.616.835.816.455 1.18 1.108 1.18 1.834 0 1.723-1.507 2.505-2.959 2.505zm4.193-4.049c0-2.289 1.38-4.322 3.776-4.322 2.069 0 2.959 1.544 2.996 3.015 0 .181-.019.417-.055.562-.054.309-.925.526-1.542.635-.491.055-2.306.091-3.613.037.018 1.852 1.144 2.905 2.741 2.905.817 0 1.706-.272 2.033-.454l.037.036c0 .563-.381 1.072-.689 1.234-.291.163-1.053.4-1.779.4-2.525.001-3.905-1.507-3.905-4.048zm9.707 12.467c-.644-.727-2.402-2.122-3.797-2.35-1.552-.254-4.001-.275-4.419-.747-.416-.472 1.83-.174 4.023-.284 2.194-.109 3.074-.907 3.559-.878.483.029 1.663 1.383 1.52 2.886-.046.483-.886 1.373-.886 1.373zm6.39 5.713c2.06 0 3.423 1.894 3.423 4.451 0 3.691-2.16 5.252-4.253 5.252-.631 0-2.126-.166-2.592-.367l1.397-8.407c.565-.398.929-.929 2.025-.929zm.185-7.413c-.869.098-2.479.201-3.447 1.713-.812 1.031-.472 2.065-.703 2.459-.041-.009-1.016-.705-1.016-.705-.241-.541 1.031-2.141 1.131-2.889.089-.666-.171-1.779-.656-2.605-.798-1.361 1.494.314 2.059.314.566 0 2.829-.32 2.829-.32s.877 1.91-.197 2.033zm-.109-9.714v-3.051c0-1.107-.035-1.651-.072-2.051.309-.091 1.017-.182 1.326-.182.199 0 .254.091.254 1.125.018 1.198.018 2.542.018 3.722 0 1.924.98 2.178 1.78 2.178.852 0 1.578-.545 1.869-.925v-5.375c0-.436.054-.526.291-.617.491-.055.89-.109 1.289-.109 0 .399-.055 1.688-.055 3.268v2.923c0 .89.218 1.07.727 1.162v.072c-.019.345-.435.854-.817.854-.763 0-1.18-.509-1.271-1.29-.527.563-1.125.872-1.506 1.052-.364.146-.744.237-1.162.237-1.835.003-2.671-1.214-2.671-2.993zm8.157 12.3c-1.509-.631-2.644-2.1-6.222-2.537.32-.637-.167-2.071-.167-2.071.643 0 1.625.261 2.567.652.332 1.214 2.094 1.722 3.042 1.722 0 .756.619 1.257 1.848 1.847-.201.202-.468.638-1.068.387z"/></svg>